<?xml version="1.0" encoding="UTF-8"?>
<svg id="Calque_1" data-name="Calque 1" xmlns="http://www.w3.org/2000/svg" viewBox="0 0 554.27 142.45">
  <path d="M111.56,70.92l28.75-28.75c1.92-1.92,1.92-5.03,0-6.95l-4.85-4.85c-1.53-1.53-3.87-1.88-5.77-.87l-22.59,11.98c-4.27,2.26-8.9-2.35-6.65-6.62l11.93-22.69c1-1.9.65-4.24-.87-5.76l-4.98-4.98c-1.92-1.92-5.03-1.92-6.95,0l-28.75,28.75L42.17,1.53c-1.92-1.92-5.03-1.92-6.95,0l-4.85,4.85c-1.53,1.53-1.88,3.87-.87,5.77l11.98,22.59c2.26,4.27-2.35,8.9-6.62,6.65l-22.69-11.93c-1.9-1-4.24-.65-5.76.87l-4.98,4.98c-1.92,1.92-1.92,5.03,0,6.95l28.66,28.66L1.52,99.5c-1.92,1.92-1.92,5.03,0,6.95l4.85,4.85c1.53,1.53,3.87,1.88,5.77.87l22.59-11.98c4.27-2.26,8.9,2.35,6.65,6.62l-11.93,22.69c-1,1.9-.65,4.24.87,5.76l4.98,4.98c1.92,1.92,5.03,1.92,6.95,0l28.58-28.58,29.36,29.36c1.92,1.92,5.03,1.92,6.95,0l4.85-4.85c1.53-1.53,1.88-3.87.87-5.77l-11.98-22.59c-2.26-4.27,2.35-8.9,6.62-6.65l22.69,11.93c1.9,1,4.24.65,5.76-.87l4.98-4.98c1.92-1.92,1.92-5.03,0-6.95l-29.36-29.36ZM101.28,88.1l-9.62-4.95c-1.9-.98-4.21-.62-5.72.89l-2,2c-1.51,1.51-1.87,3.82-.89,5.72l4.95,9.62c2.56,4.98-3.88,9.68-7.84,5.72l-5.12-5.12c-.19-.29-.41-.57-.66-.83-1.92-1.92-5.03-1.92-6.95,0l-5.16,5.16c-3.96,3.96-10.4-.74-7.84-5.72l4.95-9.62c.98-1.9.62-4.21-.89-5.72l-2-2c-1.51-1.51-3.82-1.87-5.72-.89l-9.62,4.95c-4.98,2.56-9.68-3.88-5.72-7.84l5.08-5.08s0,0,0,0,0,0,0,0l.08-.08c1.92-1.92,1.92-5.03,0-6.95-.26-.26-.53-.48-.83-.66l-4.42-4.42c-3.96-3.96.74-10.4,5.72-7.84l9.62,4.95c1.9.98,4.21.62,5.72-.89l2-2c1.51-1.51,1.87-3.82.89-5.72l-4.95-9.62c-2.56-4.98,3.88-9.68,7.84-5.72l5.16,5.16c1.92,1.92,5.03,1.92,6.95,0,.02-.02.03-.03.05-.05.01-.01.03-.03.05-.04l5.16-5.16c3.96-3.96,10.4.74,7.84,5.72l-4.95,9.62c-.98,1.9-.61,4.21.89,5.72l2,2c1.51,1.51,3.82,1.87,5.72.89l9.62-4.95c4.98-2.56,9.68,3.88,5.72,7.84l-5.16,5.16c-1.88,1.88-1.91,4.91-.1,6.84.2.32.43.62.71.9l5.16,5.16c3.96,3.96-.74,10.4-5.72,7.84Z"/>
  <path d="M516.39,21.59h-81.31c-20.83,0-37.88,16.82-37.88,37.39v24.5c0,20.56,17.05,37.39,37.88,37.39h81.31c20.83,0,37.88-16.82,37.88-37.39v-24.5c0-20.56-17.05-37.39-37.88-37.39ZM522.74,77.36c0,10.3-10.2,18.73-22.67,18.73h-48.67c-12.47,0-22.67-8.43-22.67-18.73v-12.27c0-10.3,10.2-18.73,22.67-18.73h48.67c12.47,0,22.67,8.43,22.67,18.73v12.27Z"/>
  <path d="M297.93,23.03c-11.91,4.66-32.37,34.21-43.58,44.78-.91.86-1.69,1.24-2.4,1.29-.71-.05-1.49-.43-2.4-1.29-11.2-10.57-31.67-40.11-43.58-44.78-14.54-5.7-32.56,7.14-32.56,27v70.84h31.06V53.94l36.44,42.19c3.42,3.49,7.2,5.37,11.04,5.53,3.84-.16,7.61-2.04,11.04-5.53l36.44-42.19v66.92h31.06V50.02c0-19.86-18.01-32.69-32.56-27Z"/>
  <rect x="348.31" y="21.65" width="31.06" height="99.19"/>
</svg>