<?xml version="1.0" encoding="UTF-8"?>
<svg id="Calque_1" data-name="Calque 1" xmlns="http://www.w3.org/2000/svg" viewBox="0 0 276.98 277.16">
  <path d="M217.05,137.98l55.95-55.95c3.73-3.73,3.73-9.78,0-13.51l-9.43-9.43c-2.97-2.97-7.52-3.65-11.23-1.68l-43.95,23.31c-8.3,4.4-17.31-4.57-12.93-12.89l23.21-44.14c1.95-3.7,1.26-8.24-1.7-11.2l-9.68-9.68c-3.73-3.73-9.78-3.73-13.51,0l-55.95,55.95L82.04,2.98c-3.73-3.73-9.78-3.73-13.51,0l-9.43,9.43c-2.97,2.97-3.65,7.52-1.69,11.23l23.31,43.95c4.4,8.3-4.57,17.31-12.89,12.93l-44.14-23.21c-3.7-1.95-8.24-1.26-11.2,1.7l-9.68,9.68c-3.73,3.73-3.73,9.78,0,13.51l55.77,55.77L2.96,193.59c-3.73,3.73-3.73,9.78,0,13.51l9.43,9.43c2.97,2.97,7.52,3.65,11.23,1.69l43.95-23.31c8.3-4.4,17.31,4.57,12.93,12.89l-23.21,44.14c-1.95,3.7-1.26,8.24,1.7,11.2l9.68,9.68c3.73,3.73,9.78,3.73,13.51,0l55.61-55.61,57.13,57.13c3.73,3.73,9.78,3.73,13.51,0l9.43-9.43c2.97-2.97,3.65-7.52,1.69-11.23l-23.31-43.95c-4.4-8.3,4.57-17.31,12.89-12.93l44.14,23.21c3.7,1.95,8.24,1.26,11.2-1.7l9.68-9.68c3.73-3.73,3.73-9.78,0-13.51l-57.13-57.13ZM197.06,171.4l-18.71-9.63c-3.69-1.9-8.19-1.2-11.13,1.74l-3.88,3.88c-2.94,2.94-3.64,7.43-1.74,11.13l9.63,18.71c4.99,9.69-7.54,18.84-15.25,11.13l-9.96-9.96c-.37-.57-.79-1.11-1.29-1.61-3.73-3.73-9.78-3.73-13.51,0l-10.04,10.04c-7.71,7.71-20.24-1.43-15.25-11.13l9.63-18.71c1.9-3.69,1.2-8.19-1.74-11.13l-3.88-3.88c-2.94-2.94-7.43-3.64-11.13-1.74l-18.71,9.63c-9.69,4.99-18.84-7.54-11.13-15.25l9.87-9.87s0,0,0,0,0,0,0,0l.15-.15c3.73-3.73,3.73-9.78,0-13.51-.5-.5-1.04-.92-1.61-1.29l-8.59-8.59c-7.71-7.71,1.43-20.24,11.13-15.25l18.71,9.63c3.69,1.9,8.19,1.2,11.13-1.74l3.88-3.88c2.94-2.94,3.64-7.43,1.74-11.13l-9.63-18.71c-4.99-9.69,7.54-18.84,15.25-11.13l10.04,10.04c3.73,3.73,9.78,3.73,13.51,0,.03-.03.06-.07.09-.1.03-.03.06-.05.09-.08l10.04-10.04c7.71-7.71,20.24,1.43,15.25,11.13l-9.63,18.71c-1.9,3.69-1.2,8.19,1.74,11.13l3.88,3.88c2.94,2.94,7.43,3.64,11.13,1.74l18.71-9.63c9.69-4.99,18.84,7.54,11.13,15.25l-10.04,10.04c-3.66,3.66-3.72,9.56-.19,13.3.38.62.84,1.22,1.38,1.76l10.04,10.04c7.71,7.71-1.43,20.24-11.13,15.25Z"/>
</svg>